<svg width="64" height="96" viewBox="0 0 64 96" fill="none" xmlns="http://www.w3.org/2000/svg">
<path d="M16 4C16 1.79086 17.7909 0 20 0H28C30.2091 0 32 1.79086 32 4V12C32 14.2091 30.2091 16 28 16H20C17.7909 16 16 14.2091 16 12V4Z" fill="#ffffff"/>
<path d="M32 20C32 17.7909 33.7909 16 36 16H44C46.2091 16 48 17.7909 48 20V28C48 30.2091 46.2091 32 44 32H36C33.7909 32 32 30.2091 32 28V20Z" fill="#ffffff"/>
<path d="M48 36C48 33.7909 49.7909 32 52 32H60C62.2091 32 64 33.7909 64 36V44C64 46.2091 62.2091 48 60 48H52C49.7909 48 48 46.2091 48 44V36Z" fill="#ffffff"/>
<path d="M32 52C32 49.7909 33.7909 48 36 48H44C46.2091 48 48 49.7909 48 52V60C48 62.2091 46.2091 64 44 64H36C33.7909 64 32 62.2091 32 60V52Z" fill="#ffffff"/>
<path d="M16 68C16 65.7909 17.7909 64 20 64H28C30.2091 64 32 65.7909 32 68V76C32 78.2091 30.2091 80 28 80H20C17.7909 80 16 78.2091 16 76V68Z" fill="#ffffff"/>
<path d="M0 84C0 81.7909 1.79086 80 4 80H12C14.2091 80 16 81.7909 16 84V92C16 94.2091 14.2091 96 12 96H4C1.79086 96 0 94.2091 0 92V84Z" fill="#ffffff"/>
<path d="M48 28C48 30.2091 49.7909 32 52 32C49.7909 32 48 33.7909 48 36C48 33.7909 46.2091 32 44 32C46.2091 32 48 30.2091 48 28Z" fill="#ffffff"/>
<path d="M48 44C48 46.2091 49.7909 48 52 48C49.7909 48 48 49.7909 48 52C48 49.86 46.3194 48.1121 44.2061 48.0049L44 48C46.2091 48 48 46.2091 48 44Z" fill="#ffffff"/>
<path d="M32 12C32 14.2091 33.7909 16 36 16C33.7909 16 32 17.7909 32 20C32 17.7909 30.2091 16 28 16C30.2091 16 32 14.2091 32 12Z" fill="#ffffff"/>
<path d="M32 60C32 62.2091 33.7909 64 36 64C33.7909 64 32 65.7909 32 68C32 65.7909 30.2091 64 28 64C30.2091 64 32 62.2091 32 60Z" fill="#ffffff"/>
<path d="M16 76C16 78.2091 17.7909 80 20 80C17.7909 80 16 81.7909 16 84C16 81.7909 14.2091 80 12 80C14.2091 80 16 78.2091 16 76Z" fill="#ffffff"/>
</svg>
